HIERARCHY
ROOT Hips
{
	OFFSET -3.958830 18.904000 13.208200
	CHANNELS 6 Xposition Yposition Zposition Zrotation Yrotation Xrotation 
	JOINT LHipJoint
	{
		OFFSET 0.000000 0.000000 0.000000
		CHANNELS 3 Zrotation Yrotation Xrotation
		JOINT LeftUpLeg
		{
			OFFSET 1.800000 -1.400000 0.085000
			CHANNELS 3 Zrotation Yrotation Xrotation
			JOINT LeftLeg
			{
				OFFSET 2.215000 -6.000000 0.000000
				CHANNELS 3 Zrotation Yrotation Xrotation
				JOINT LeftFoot
				{
					OFFSET 2.500000 -6.900000 0.000000
					CHANNELS 3 Zrotation Yrotation Xrotation
					JOINT LeftToeBase
					{
						OFFSET 0.200000 -0.500000 1.950000
						CHANNELS 3 Zrotation Yrotation Xrotation
						End Site
						{
							OFFSET 0.000000 0.000000 0.000000
						}
					}
				}
			}
		}
	}
	JOINT RHipJoint
	{
		OFFSET 0.000000 0.000000 0.000000
		CHANNELS 3 Zrotation Yrotation Xrotation
		JOINT RightUpLeg
		{
			OFFSET -1.800000 -1.400000 0.085000
			CHANNELS 3 Zrotation Yrotation Xrotation
			JOINT RightLeg
			{
				OFFSET -2.215000 -6.000000 0.000000
				CHANNELS 3 Zrotation Yrotation Xrotation
				JOINT RightFoot
				{
					OFFSET -2.500000 -6.900000 0.000000
					CHANNELS 3 Zrotation Yrotation Xrotation
					JOINT RightToeBase
					{
						OFFSET -0.200000 -0.500000 1.950000
						CHANNELS 3 Zrotation Yrotation Xrotation
						End Site
						{
							OFFSET 0.000000 0.000000 0.000000
						}
					}
				}
			}
		}
	}
	JOINT LowerBack
	{
		OFFSET 0.000000 0.000000 0.000000
		CHANNELS 3 Zrotation Yrotation Xrotation
		JOINT Spine
		{
			OFFSET -0.087000 1.940000 -0.288900
			CHANNELS 3 Zrotation Yrotation Xrotation
			JOINT Spine1
			{
				OFFSET 0.000000 1.950000 0.060000
				CHANNELS 3 Zrotation Yrotation Xrotation
				JOINT Neck
				{
					OFFSET 0.000000 0.000000 0.000000
					CHANNELS 3 Zrotation Yrotation Xrotation
					JOINT Neck1
					{
						OFFSET 0.000000 1.600000 0.340000
						CHANNELS 3 Zrotation Yrotation Xrotation
						JOINT Head
						{
							OFFSET 0.000000 1.667000 -0.240000
							CHANNELS 3 Zrotation Yrotation Xrotation
							End Site
							{
								OFFSET 0.000000 0.000000 0.000000
							}
						}
					}
				}
				JOINT LeftShoulder
				{
					OFFSET 0.000000 0.000000 0.000000
					CHANNELS 3 Zrotation Yrotation Xrotation
					JOINT LeftArm
					{
						OFFSET 2.700000 1.550000 -0.730000
						CHANNELS 3 Zrotation Yrotation Xrotation
						JOINT LeftForeArm
						{
							OFFSET 5.450000 0.000000 0.000000
							CHANNELS 3 Zrotation Yrotation Xrotation
							JOINT LeftHand
							{
								OFFSET 3.450000 0.000000 0.000000
								CHANNELS 3 Zrotation Yrotation Xrotation
								JOINT LeftHandIndex1
								{
									OFFSET 0.750000 0.000000 0.000000
									CHANNELS 3 Zrotation Yrotation Xrotation
									End Site
									{
										OFFSET 0.000000 0.000000 0.000000
									}
								}
							}
						}
					}
				}
				JOINT RightShoulder
				{
					OFFSET 0.000000 0.000000 0.000000
					CHANNELS 3 Zrotation Yrotation Xrotation
					JOINT RightArm
					{
						OFFSET -2.700000 1.550000 -0.730000
						CHANNELS 3 Zrotation Yrotation Xrotation
						JOINT RightForeArm
						{
							OFFSET -5.450000 0.000000 0.000000
							CHANNELS 3 Zrotation Yrotation Xrotation
							JOINT RightHand
							{
								OFFSET -3.450000 0.000000 0.000000
								CHANNELS 3 Zrotation Yrotation Xrotation
								JOINT RightHandIndex1
								{
									OFFSET -0.750000 0.000000 0.000000
									CHANNELS 3 Zrotation Yrotation Xrotation
									End Site
									{
										OFFSET 0.000000 0.000000 0.000000
									}
								}
							}
						}
					}
				}
			}
		}
	}
}
MOTION
Frames: 8
Frame Time: 0.016667
0.246460 16.537160 -4.937390 -0.703045 5.696151 2.817439 -15.410706 12.944397 3.510295 14.126615 -3.883796 -24.846454 -12.021388 10.238224 26.183430 -0.180505 6.203777 2.328957 0.454100 0.226340 0.218650 18.015326 -10.501138 2.488060 -24.618169 0.911152 -23.710716 10.213608 -8.703009 23.794195 -0.342960 -4.783098 2.524408 0.131720 0.232930 0.297460 -2.935236 -2.174108 -7.617896 0.150822 0.735206 10.986754 1.943371 0.794203 3.609956 0.570957 -1.088346 -8.268339 -2.919397 2.644508 27.975584 1.257210 2.126950 -13.766370 -21.578009 -10.618120 3.073273 -49.452848 -10.284504 -0.041951 -19.194361 -12.841043 0.268145 -3.809161 3.163013 0.443970 0.106060 0.007110 0.228090 21.210084 12.679898 5.070241 53.255436 7.841059 -6.259896 17.509705 25.949093 1.229190 2.118340 -1.501129 -0.073650 0.142250 -0.015830 -0.138170 
0.223140 16.506950 -4.959900 -0.461592 5.974977 2.304660 -15.435945 12.946987 3.629351 14.586843 -4.065748 -25.317812 -12.512444 10.745755 27.420422 -0.136553 6.453598 2.208677 0.482950 0.245040 0.258400 17.985333 -10.450292 2.490821 -25.024995 0.919660 -23.648214 10.394129 -9.014776 24.769267 -0.397807 -4.879749 2.469355 0.123400 0.162650 0.295230 -2.860774 -2.320120 -7.775697 -0.257691 0.811046 12.609359 1.966773 0.933332 3.229244 0.581560 -1.400474 -8.621468 -3.693834 2.483936 29.077712 1.838660 1.884240 -15.955140 -21.795060 -11.260466 3.200152 -48.442349 -10.241510 -0.325314 -20.087053 -13.350825 0.376104 -3.732559 3.165414 0.508340 0.037930 0.063590 0.214770 21.422266 13.659336 5.537999 52.391883 7.543547 -6.785665 18.925155 27.002769 1.607241 2.126950 -1.481952 -0.059010 0.129970 -0.031490 -0.156290 
0.183020 16.462030 -4.998580 -0.083160 6.427580 1.467510 -15.463093 12.937634 3.795995 15.179942 -4.398508 -26.079788 -12.999602 11.459237 29.428838 -0.072461 6.822318 2.031534 0.522840 0.266730 0.312400 17.954758 -10.349542 2.536463 -25.886260 0.968814 -23.690759 11.075420 -9.724667 26.534637 -0.494215 -5.134447 2.346987 0.103150 0.062140 0.299320 -2.786919 -2.538971 -8.027894 -0.687303 0.940759 15.470571 1.750353 1.192191 2.305659 0.596557 -2.049646 -9.155320 -5.197901 2.327831 30.549393 2.683390 1.537910 -19.463260 -22.462139 -12.142931 3.297345 -46.097560 -10.003679 -0.904301 -22.462920 -14.812088 0.749948 -3.618211 3.190496 0.602090 -0.060610 0.141450 0.190360 22.069624 15.147286 6.275696 50.997866 6.840563 -7.630008 20.794949 28.411474 2.135056 2.136350 -1.455726 -0.031720 0.104340 -0.045630 -0.182550 
0.139120 16.412570 -5.049160 0.097805 6.771544 0.251467 -15.464075 12.915014 3.962727 16.028401 -4.682975 -26.685398 -13.467134 12.270737 31.639771 -0.009856 7.259230 1.826162 0.552370 0.273110 0.369260 17.947810 -10.254854 2.602810 -26.697223 1.139875 -23.788103 11.815763 -10.567729 28.731353 -0.607204 -5.451791 2.198260 0.077390 -0.047700 0.300810 -2.787296 -2.701196 -8.303549 -0.470263 0.980497 19.227481 1.076112 1.499310 0.952270 0.740171 -2.755778 -9.760345 -6.952250 2.248818 32.562220 3.407770 1.310780 -23.594520 -23.286119 -13.023751 3.321871 -43.069335 -9.598630 -1.531316 -25.447029 -16.229840 1.236401 -3.500515 3.206706 0.712840 -0.169070 0.225510 0.153640 22.576640 16.680890 7.012728 49.599853 6.261411 -8.337778 22.886391 29.320982 2.697714 2.153253 -1.411984 -0.014220 0.082060 -0.049290 -0.218630 
0.095340 16.365510 -5.102380 0.208932 7.120607 -1.021693 -15.448431 12.869710 4.108858 16.857742 -4.984424 -27.250001 -13.801752 13.044725 33.839251 0.054046 7.703248 1.636856 0.565400 0.256390 0.411710 17.963929 -10.147955 2.688049 -27.553952 1.388748 -23.977011 12.669471 -11.502660 31.020035 -0.724625 -5.818550 2.045435 0.043320 -0.130450 0.301490 -2.845159 -2.822983 -8.548859 -0.009119 0.752149 23.308873 0.195852 1.595191 -0.843364 0.894475 -3.520633 -10.486744 -8.885689 2.517321 34.631735 4.432170 1.192300 -27.405460 -24.169758 -13.868362 3.466970 -39.981744 -8.490274 -2.351962 -28.342263 -17.676610 1.738230 -3.395071 3.212498 0.819740 -0.263630 0.295130 0.122150 23.146548 18.163305 7.695562 48.100918 5.707671 -8.896867 25.416954 29.998986 3.358553 2.168910 -1.364222 -0.009400 0.074000 -0.043340 -0.251440 
0.051540 16.324230 -5.150940 0.082166 7.487304 -2.221711 -15.427325 12.812455 4.231945 17.813864 -5.222217 -27.822842 -13.954086 13.717475 35.851869 0.113330 8.111433 1.471145 0.570330 0.238090 0.437950 17.994776 -10.031358 2.765347 -28.121777 1.713502 -24.234344 13.486058 -12.447470 33.333756 -0.837869 -6.198434 1.898619 0.014680 -0.190460 0.297130 -2.931678 -2.924982 -8.733884 0.828982 0.234965 27.213896 -0.581056 1.484694 -2.839908 1.031637 -4.485403 -11.170745 -11.212154 2.997303 36.317874 5.321370 1.027510 -30.500270 -25.028427 -14.367566 3.590638 -37.231636 -7.019744 -3.233616 -31.409338 -19.628931 2.451669 -3.302177 3.225496 0.904030 -0.341320 0.347060 0.098820 23.768627 19.395812 8.224366 46.385851 5.259990 -9.086571 28.269340 29.937154 4.006880 2.189657 -1.325788 -0.009400 0.075020 -0.034940 -0.273320 
0.007070 16.279990 -5.185030 0.131278 8.032713 -3.015505 -15.428403 12.696900 4.339251 18.564909 -5.556849 -28.635013 -14.088018 14.364603 37.780711 0.153633 8.518803 1.321819 0.565420 0.210870 0.453810 18.027708 -9.873038 2.848289 -28.958446 1.901342 -24.638669 14.462811 -13.530118 35.445143 -0.943025 -6.623592 1.745412 -0.001160 -0.216130 0.283830 -2.982833 -3.009168 -8.867422 1.204647 -0.208626 30.081034 -1.005883 1.288492 -4.409525 1.084442 -5.226455 -11.525209 -12.969247 3.325484 37.139430 6.031350 0.788470 -32.788390 -25.436325 -14.415035 3.563624 -35.345213 -5.937815 -3.864019 -33.960322 -21.499144 3.204527 -3.250201 3.217885 0.969100 -0.390510 0.371230 0.080660 24.123726 19.967913 8.431692 45.024722 5.057464 -9.020117 31.059171 29.412598 4.530651 2.201006 -1.288460 -0.030360 0.099970 -0.017090 -0.294410 
-0.038450 16.235650 -5.202500 0.074880 8.558641 -3.685718 -15.437870 12.563000 4.451479 19.531924 -5.810889 -29.370672 -14.431976 15.084254 39.458942 0.190472 8.944897 1.174923 0.558810 0.175730 0.474450 18.056325 -9.717863 2.911150 -29.646081 2.036045 -24.858399 15.456524 -14.608285 37.229709 -1.045614 -7.020487 1.606184 -0.014950 -0.230710 0.271410 -3.012895 -3.066909 -8.984827 1.576670 -0.604746 32.262732 -1.337599 1.139661 -5.691161 1.180896 -5.672446 -11.743026 -14.121463 3.397152 37.810649 6.355950 0.529100 -34.585230 -25.714542 -14.341025 3.495249 -33.920375 -5.070101 -4.336459 -36.436542 -23.249601 4.028349 -3.213544 3.204517 1.031000 -0.428440 0.388040 0.067400 24.239586 20.221062 8.532254 44.251269 4.871853 -8.947347 33.271560 28.719734 4.850593 2.207912 -1.252135 -0.061060 0.130750 -0.000190 -0.318610 
